:SAMPLES-PER-SECOND 30
:FULLY-SPECIFIED
:DEGREES
559
root  -25.0749 38.9501 -17.0399 -3.82423 14.3712 -0.502991
RightUpLeg  -14.7308 -24.4266 9.06535
RightLeg  29.5434 -12.6835 -7.91997
RightFoot  -14.2585 -0.393606 -11.6046
RightToes  0.00048216 0.542163 -0.142577
Spine  11.2007 -2.57633 8.98418
Spine1  3.58047 -2.04772 3.85161
HEad  6.97882 11.4001 -0.220872
LeftShoulder1  8.38717 -12.2248 -46.5153
LeftArm  -5.30655 17.1175 -28.414
LeftForeArm  22.3275 -16.434 -4.89055
LeftHand  -0.25398 0.0180481 5.50724
RightShoulder  4.15892 7.11537 33.2193
RightArm  -0.711421 -20.0841 39.0415
RightForeArm  -6.45556 29.0418 6.6435
RightHand  -0.671312 -0.903636 -17.2174
LeftUpLeg  -12.0492 20.3202 4.37231
LeftLeg  65.3137 0.187089 1.0912
LeftFoot  5.93082 1.33371 -8.9836
LeftToes  1.06244e-005 4.65854e-005 -8.18505e-006
560
root  -24.1393 39.234 -16.3024 -3.7673 8.84863 -0.0700836
RightUpLeg  -12.2386 -21.2755 7.03817
RightLeg  28.3575 -10.6613 -6.38275
RightFoot  -13.912 -0.343547 -11.1028
RightToes  0.00048216 0.542163 -0.142577
Spine  10.92 -2.41479 8.6244
Spine1  3.79522 -1.79325 3.18393
HEad  7.08886 11.9524 -0.453246
LeftShoulder1  8.21898 -12.0052 -46.218
LeftArm  -5.13379 17.5583 -27.7981
LeftForeArm  23.4492 -16.1948 -4.92811
LeftHand  -0.25398 0.0180481 5.50724
RightShoulder  4.14656 7.08135 33.2278
RightArm  1.86252 -20.7056 39.4467
RightForeArm  -2.59949 33.1906 7.51406
RightHand  -0.587817 -1.16033 -15.9551
LeftUpLeg  -14.5201 19.049 5.10895
LeftLeg  64.1586 1.90337 4.91306
LeftFoot  2.85579 0.755408 -6.19554
LeftToes  1.06244e-005 4.65854e-005 -8.18505e-006
561
root  -23.208 39.5009 -15.5757 -3.46036 2.81445 0.368912
RightUpLeg  -10.2853 -17.6331 5.05441
RightLeg  26.8889 -8.45962 -4.61446
RightFoot  -13.4988 -0.292745 -10.6707
RightToes  0.00048216 0.542163 -0.142577
Spine  10.5491 -2.25815 8.29682
Spine1  3.6291 -1.58689 2.52457
HEad  6.9765 13.532 -1.50027
LeftShoulder1  8.03034 -11.7787 -45.8147
LeftArm  -6.21688 18.6285 -27.5587
LeftForeArm  23.3177 -15.9651 -4.84048
LeftHand  -0.25398 0.0180481 5.50724
RightShoulder  4.07156 7.00839 32.7878
RightArm  4.6404 -21.1678 39.9515
RightForeArm  0.955135 36.7589 8.32557
RightHand  -0.483127 -1.81433 -15.4016
LeftUpLeg  -16.2518 17.6326 6.06132
LeftLeg  60.4837 3.88108 7.93962
LeftFoot  0.814599 0.338504 -3.24706
LeftToes  1.06244e-005 4.65854e-005 -8.18505e-006
562
root  -22.2853 39.7474 -14.8682 -3.05107 -3.55943 0.736603
RightUpLeg  -8.85825 -14.0104 3.13587
RightLeg  25.2755 -5.68917 -2.74647
RightFoot  -13.0791 -0.230524 -9.34798
RightToes  0.00048216 0.542163 -0.142577
Spine  10.2751 -2.05033 8.08193
Spine1  3.22042 -1.34822 1.76398
HEad  6.38718 15.708 -2.90611
LeftShoulder1  8.01032 -11.7434 -45.8051
LeftArm  -7.28614 19.8851 -27.1278
LeftForeArm  22.0497 -15.8198 -4.75378
LeftHand  -0.25398 0.0180481 5.50724
RightShoulder  4.03593 6.98611 32.5306
RightArm  6.62241 -21.4105 39.9402
RightForeArm  3.40073 39.4094 8.9952
RightHand  -0.457354 -2.07087 -15.629
LeftUpLeg  -17.007 16.1542 7.47169
LeftLeg  54.8913 6.63076 10.473
LeftFoot  -0.770984 0.23129 -2.48115
LeftToes  1.06244e-005 4.65854e-005 -8.18505e-006
563
root  -21.3817 39.9347 -14.1726 -2.67053 -10.1506 0.979782
RightUpLeg  -8.09505 -10.4529 1.4977
RightLeg  24.0737 -2.62173 -1.21955
RightFoot  -12.6455 -0.174422 -7.82653
RightToes  0.00048216 0.542163 -0.142577
Spine  10.1354 -1.75848 7.884
Spine1  2.82727 -1.04396 1.12142
HEad  5.472 17.8987 -4.15626
LeftShoulder1  8.059 -11.7847 -45.9644
LeftArm  -7.77639 20.9101 -26.6131
LeftForeArm  20.837 -15.7024 -4.73238
LeftHand  -0.25398 0.0180481 5.50724
RightShoulder  4.0601 7.01649 32.6493
RightArm  7.18963 -21.39 39.3613
RightForeArm  4.38644 40.8194 9.39627
RightHand  -0.501465 -1.82055 -16.0083
LeftUpLeg  -16.6084 14.7245 9.49627
LeftLeg  47.8792 10.0073 12.0398
LeftFoot  -1.7403 0.31068 -3.56956
LeftToes  1.06244e-005 4.65854e-005 -8.18505e-006
564
root  -20.4884 40.0353 -13.4643 -2.37439 -16.5793 1.07185
RightUpLeg  -7.88394 -6.50832 0.090861
RightLeg  23.4737 0.0545378 -0.115552
RightFoot  -12.2918 -0.138361 -6.67765
RightToes  0.00048216 0.542163 -0.142577
Spine  10.1151 -1.53856 7.50935
Spine1  2.49313 -0.88111 0.94531
HEad  4.41332 19.9023 -5.12844
LeftShoulder1  8.01552 -11.7472 -45.8238
LeftArm  -8.11493 21.6665 -26.4545
LeftForeArm  20.5249 -15.5006 -4.7238
LeftHand  -0.25398 0.0180481 5.50724
RightShoulder  4.03858 6.95445 32.6717
RightArm  6.39552 -21.1206 38.8449
RightForeArm  3.83923 41.0333 9.50486
RightHand  -0.550064 -1.55601 -16.4119
LeftUpLeg  -15.2675 12.3758 11.8957
LeftLeg  40.0183 12.3408 11.28
LeftFoot  -1.99734 0.358266 -4.2341
LeftToes  1.06244e-005 4.65854e-005 -8.18505e-006
565
root  -19.5844 40.0407 -12.7384 -2.11275 -22.6489 0.939285
RightUpLeg  -8.13637 -2.24654 -1.19941
RightLeg  23.4285 2.09846 0.72277
RightFoot  -12.1506 -0.120504 -5.47065
RightToes  0.00048216 0.542163 -0.142577
Spine  10.2783 -1.49544 7.10208
Spine1  2.09138 -0.931333 1.07941
HEad  3.35387 21.628 -5.91014
LeftShoulder1  7.93085 -11.6909 -45.4967
LeftArm  -8.65782 22.249 -26.5109
LeftForeArm  21.0181 -15.232 -4.66668
LeftHand  -0.25398 0.0180481 5.50724
RightShoulder  3.94951 6.78489 32.4424
RightArm  4.61934 -20.7246 38.5603
RightForeArm  2.17105 40.4398 9.41183
RightHand  -0.590857 -1.43764 -17.1264
LeftUpLeg  -13.4429 7.92308 14.4342
LeftLeg  32.187 11.8611 8.30429
LeftFoot  -2.02699 0.341142 -4.03682
LeftToes  1.06244e-005 4.65854e-005 -8.18505e-006
